<?xml version="1.0" standalone="no"?>
<!DOCTYPE svg PUBLIC "-//W3C//DTD SVG 20010904//EN"
 "http://www.w3.org/TR/2001/REC-SVG-20010904/DTD/svg10.dtd">
<svg version="1.0" xmlns="http://www.w3.org/2000/svg"
 width="1024.000000pt" height="1024.000000pt" viewBox="0 0 1024.000000 1024.000000"
 preserveAspectRatio="xMidYMid meet">
<metadata>
Created by potrace 1.14, written by Peter Selinger 2001-2017
</metadata>
<g transform="translate(0.000000,1024.000000) scale(0.100000,-0.100000)"
fill="#000000" stroke="none">
<path d="M5940 8710 c-21 -7 -21 -8 -5 -9 11 0 27 4 35 9 18 11 5 11 -30 0z"/>
<path d="M5636 8605 c-43 -18 -81 -37 -85 -41 -3 -4 1 -5 9 -1 42 16 166 70
169 73 13 12 -23 0 -93 -31z"/>
<path d="M7176 8532 c46 -75 68 -137 94 -262 34 -168 37 -389 5 -535 -23 -104
-40 -171 -45 -175 -3 -3 -14 -32 -24 -65 -22 -71 -55 -139 -108 -217 -21 -31
-38 -59 -38 -62 0 -3 -6 -14 -14 -23 -65 -80 -169 -238 -194 -296 -16 -38 -49
-136 -56 -168 -30 -135 -45 -234 -53 -330 -3 -44 -9 -76 -12 -71 -3 5 -7 -27
-8 -72 -1 -44 -4 -94 -7 -111 -2 -16 -9 -70 -15 -120 -7 -49 -17 -108 -22
-130 -6 -22 -13 -58 -16 -80 -3 -22 -10 -45 -15 -52 -5 -7 -7 -17 -3 -23 3 -5
2 -10 -4 -10 -6 0 -8 -7 -5 -15 4 -8 1 -15 -5 -15 -7 0 -11 -6 -9 -12 3 -13
-46 -143 -82 -223 -10 -22 -22 -50 -25 -62 -3 -13 -12 -29 -19 -36 -20 -20
-76 -130 -76 -149 0 -10 -4 -18 -10 -18 -5 0 -10 -4 -10 -10 0 -5 -18 -39 -40
-75 -22 -36 -40 -69 -40 -73 0 -4 -9 -13 -20 -20 -11 -7 -20 -19 -20 -27 0 -7
-8 -20 -17 -27 -10 -7 -26 -29 -36 -48 -15 -30 -104 -158 -137 -197 -5 -7 -10
-17 -10 -23 0 -5 -4 -10 -8 -10 -5 0 -19 -19 -32 -42 -13 -24 -32 -52 -42 -62
-10 -11 -18 -25 -18 -30 0 -19 -57 -96 -65 -88 -4 4 -4 -3 -1 -15 5 -15 3 -23
-4 -23 -6 0 -10 -5 -8 -12 8 -22 -31 -55 -58 -50 -13 2 -24 10 -24 18 0 10 -9
12 -32 9 l-33 -5 30 10 c17 6 37 9 45 7 21 -5 21 45 0 50 -12 4 -13 3 -1 -5
21 -15 3 -32 -35 -32 -41 0 -46 17 -6 23 25 4 25 4 -5 6 -27 1 -33 -3 -33 -19
0 -24 -22 -26 -40 -5 -7 8 -16 13 -20 10 -5 -3 -10 0 -12 7 -2 6 -21 12 -41
12 -20 1 -37 4 -37 9 0 4 -9 7 -20 7 -11 0 -20 5 -20 10 0 6 5 10 10 10 6 0
10 7 10 15 0 12 -5 13 -17 7 -10 -5 -24 -7 -30 -5 -7 3 -13 0 -13 -5 0 -6 6
-13 13 -15 7 -3 4 -6 -6 -6 -16 -1 -18 4 -11 31 6 29 5 31 -9 20 -16 -14 -33
0 -22 17 7 13 -55 24 -99 19 -38 -4 -41 18 -3 25 22 4 22 4 0 6 -13 0 -23 7
-23 15 0 15 -21 26 -50 26 -10 0 -21 8 -24 17 -5 11 -10 13 -14 7 -10 -15 -64
-24 -59 -10 2 6 14 13 28 16 16 4 20 8 11 14 -7 4 -21 4 -32 1 -12 -4 -20 -2
-20 5 0 6 4 9 9 6 5 -3 11 1 14 9 4 10 1 12 -10 8 -9 -4 -14 -2 -11 3 3 5 -3
17 -14 27 -17 16 -18 16 -18 -2 0 -11 6 -22 13 -24 6 -3 -1 -5 -18 -5 -16 0
-24 2 -17 5 15 6 -25 53 -46 53 -9 0 -11 7 -7 19 5 18 3 19 -25 11 -35 -10
-40 2 -7 19 12 6 14 9 5 7 -10 -3 -18 -2 -18 3 0 5 -11 12 -25 15 -14 4 -25
11 -25 17 0 5 -10 14 -23 19 -18 7 -14 9 18 6 22 -2 31 -1 20 1 -11 3 -28 11
-39 19 -11 8 -28 14 -38 14 -12 0 -18 8 -18 21 0 22 -42 69 -61 69 -6 0 -7 4
-4 10 3 6 0 10 -7 10 -10 0 -10 2 -1 8 9 6 7 12 -7 22 -11 8 -20 18 -20 23 0
5 7 4 15 -3 9 -7 18 -10 21 -7 8 8 -21 37 -36 37 -6 0 -8 5 -5 10 3 6 1 10 -5
10 -6 0 -8 10 -4 25 4 15 2 25 -5 25 -6 0 -10 4 -8 8 3 12 -53 64 -93 86 -19
11 -46 29 -60 40 -38 31 -106 63 -189 88 -51 15 -75 27 -79 40 -2 10 -8 16
-12 13 -4 -2 -21 0 -39 5 -23 6 -31 5 -31 -4 0 -6 -15 -13 -32 -14 -18 -1 -45
-7 -61 -13 -20 -9 -31 -8 -42 1 -8 7 -22 9 -32 6 -15 -6 -32 8 -33 27 0 12 28
8 33 -5 4 -10 6 -10 6 -1 1 6 -3 15 -9 18 -5 3 -10 18 -10 32 0 16 -5 23 -12
20 -9 -3 -13 7 -13 31 0 26 5 37 20 43 17 6 17 8 3 8 -17 1 -22 15 -21 66 1
44 4 54 19 69 12 12 12 16 2 16 -10 0 -10 2 1 9 11 7 11 10 0 15 -11 5 -11 7
-1 12 10 5 10 9 1 20 -6 8 -8 14 -3 14 5 0 10 26 12 58 3 58 35 204 52 233 5
9 12 34 16 55 4 22 20 71 35 109 16 39 29 74 29 78 0 5 18 45 39 90 21 45 47
100 56 122 42 94 105 216 128 247 14 18 34 51 46 73 12 22 27 49 34 60 107
170 151 238 178 280 45 69 129 215 129 225 0 4 7 13 15 20 8 7 12 16 9 21 -3
5 2 9 10 9 9 0 16 6 16 13 0 7 14 27 30 45 17 18 30 36 30 40 0 4 15 23 33 42
18 19 46 52 61 73 16 20 35 37 42 37 8 0 14 6 14 13 0 24 292 307 317 307 7 0
17 9 23 20 6 11 22 23 35 26 14 3 25 10 25 15 0 14 44 56 67 63 11 4 36 20 55
37 18 16 45 37 61 45 15 8 27 19 27 24 0 6 6 10 13 10 7 0 46 34 87 75 51 51
77 71 82 62 5 -8 8 -7 8 6 0 9 7 17 16 17 8 0 13 4 10 8 -2 4 9 14 25 21 41
18 36 31 -13 31 -76 0 -118 -11 -118 -30 0 -12 -8 -17 -27 -18 -16 0 -39 -2
-53 -5 -14 -2 -29 -5 -33 -6 -5 0 -6 -5 -3 -10 3 -5 -9 -14 -27 -21 -79 -29
-113 -45 -128 -57 -8 -7 -20 -13 -25 -13 -22 0 -164 -81 -274 -157 -83 -58
-291 -216 -325 -248 -12 -11 -51 -42 -86 -70 -74 -58 -114 -91 -146 -122 -13
-13 -27 -23 -30 -23 -3 0 -21 -11 -39 -25 -36 -28 -54 -32 -54 -12 0 65 349
429 553 577 26 19 64 48 85 63 20 16 53 37 72 47 19 10 40 27 47 39 12 19 12
19 -17 3 -15 -9 -26 -21 -23 -26 3 -5 0 -7 -8 -4 -36 12 -380 -272 -584 -483
-120 -124 -277 -314 -357 -433 -16 -23 -28 -38 -28 -35 0 25 42 201 55 234 13
29 13 36 3 28 -22 -17 -48 -12 -48 11 0 17 -2 18 -10 6 -5 -8 -10 -10 -10 -5
0 9 -46 86 -82 137 -17 24 -28 13 -28 -30 0 -78 -42 -164 -110 -230 -40 -38
-90 -73 -105 -72 -28 1 -35 -2 -35 -15 0 -21 -117 -21 -144 0 -23 17 -56 20
-56 5 0 -12 -63 -4 -92 11 -9 5 -32 11 -50 13 -43 6 -68 16 -68 28 0 5 -4 7
-8 4 -12 -7 -102 81 -102 99 0 4 -7 13 -15 21 -8 9 -16 30 -17 47 0 18 -2 37
-3 42 -2 6 -3 47 -4 93 -1 65 -4 82 -16 82 -8 0 -22 -14 -31 -32 -9 -18 -34
-58 -55 -89 -22 -31 -39 -60 -39 -65 0 -5 -9 -15 -20 -22 -12 -7 -18 -17 -15
-22 3 -5 0 -12 -8 -17 -18 -12 -34 -53 -42 -109 -22 -150 -94 -270 -176 -291
-37 -10 -204 2 -237 17 -13 5 -33 10 -45 10 -28 0 -137 56 -157 81 -3 3 -21
11 -41 18 -20 6 -50 24 -67 39 -17 15 -43 36 -58 47 -16 11 -36 27 -45 36 -9
9 -23 21 -32 25 -8 5 -41 32 -73 61 -33 28 -72 63 -89 77 -43 37 -41 35 -91
98 -41 51 -46 63 -47 112 -1 29 -5 52 -9 49 -5 -2 -8 1 -8 7 0 13 -30 -14 -30
-27 -1 -9 -75 -66 -132 -101 -86 -53 -221 -79 -265 -51 -64 39 -52 135 25 206
60 55 136 84 234 91 70 4 82 2 130 -23 29 -15 58 -35 64 -44 11 -14 14 -14 31
0 10 8 50 34 89 57 66 39 75 42 147 42 45 0 79 -5 83 -11 4 -8 9 -7 15 2 15
23 10 29 -22 29 -19 0 -28 4 -23 11 3 6 0 15 -7 20 -19 12 -32 11 -24 -1 3 -5
-3 -10 -14 -10 -11 0 -23 5 -26 10 -3 6 -13 10 -21 10 -8 0 -12 -4 -9 -10 4
-6 -7 -10 -24 -10 -23 0 -31 5 -31 18 0 14 2 15 10 2 9 -13 10 -13 10 0 0 12
2 12 9 2 7 -11 9 -11 14 2 9 22 -4 27 -89 33 -78 6 -304 -15 -304 -28 0 -4
-16 -10 -35 -13 -32 -6 -92 -29 -160 -61 -99 -46 -182 -75 -217 -75 -26 0 -37
4 -32 11 8 14 -32 2 -53 -15 -32 -26 -133 -169 -170 -242 -118 -230 -107 -552
28 -805 10 -20 19 -43 19 -51 0 -8 8 -23 18 -34 10 -10 31 -47 47 -81 17 -35
36 -63 42 -63 7 0 13 -9 13 -20 0 -11 5 -20 10 -20 6 0 10 -5 10 -11 0 -12 10
-25 99 -120 33 -36 58 -69 53 -74 -4 -4 -1 -5 6 -1 8 5 26 -7 50 -32 20 -22
67 -59 104 -84 38 -25 65 -48 60 -53 -4 -5 -1 -5 7 0 7 4 16 4 20 -1 8 -12 40
-30 162 -90 90 -45 262 -106 549 -196 36 -11 71 -25 78 -30 6 -6 12 -8 12 -4
0 3 26 -6 58 -20 31 -13 69 -30 84 -37 15 -6 24 -15 22 -19 -3 -4 1 -5 9 -2
13 5 57 -18 177 -95 54 -34 190 -165 190 -182 0 -5 16 -27 36 -49 26 -29 34
-45 29 -60 -3 -11 -8 -30 -9 -43 -2 -12 -7 -31 -10 -42 -4 -11 -14 -37 -21
-59 -8 -21 -12 -42 -10 -47 3 -4 0 -20 -6 -36 -6 -15 -15 -55 -20 -88 -6 -33
-16 -82 -24 -110 -17 -59 -54 -227 -59 -271 -2 -17 -14 -50 -25 -73 -15 -28
-18 -41 -9 -41 7 0 0 -11 -15 -25 -15 -14 -27 -32 -27 -40 0 -7 -13 -27 -29
-43 -61 -60 -65 -84 -63 -332 2 -135 6 -226 12 -228 13 -5 13 -42 1 -42 -5 0
-2 -26 7 -57 16 -55 21 -150 10 -183 -2 -8 -3 -12 -1 -7 8 13 19 7 20 -10 4
-69 25 -218 33 -233 5 -10 10 -43 11 -72 0 -39 3 -48 9 -33 8 18 9 18 10 -5 1
-14 4 -36 6 -50 3 -14 6 -38 8 -55 1 -16 8 -40 15 -53 7 -13 10 -30 7 -38 -3
-8 -2 -12 3 -9 12 7 26 -78 17 -101 -5 -13 -3 -14 6 -6 13 10 16 1 18 -62 1
-11 7 -24 14 -30 8 -6 16 -28 19 -49 3 -22 12 -46 19 -54 6 -8 13 -22 14 -29
5 -35 108 -233 118 -227 6 3 8 3 4 -2 -13 -14 39 -100 242 -400 62 -91 291
-338 400 -430 118 -100 309 -225 458 -299 93 -47 117 -64 63 -45 -23 8 -38 7
-65 -6 -19 -9 -43 -16 -53 -14 -27 3 -103 -12 -103 -21 0 -5 -24 -13 -52 -19
-73 -15 -124 -41 -143 -73 -8 -15 -22 -33 -29 -41 -19 -19 19 -94 59 -115 17
-9 41 -23 55 -31 14 -8 34 -17 45 -18 11 -2 47 -12 80 -23 55 -17 185 -43 355
-69 158 -25 363 -36 655 -35 317 1 430 10 615 46 162 31 202 42 425 118 269
92 377 122 570 156 184 32 245 46 245 54 0 4 13 13 30 20 50 21 55 35 23 66
-15 16 -30 27 -33 26 -6 -3 -121 38 -135 48 -5 4 -23 11 -40 14 -16 3 -41 9
-55 12 -14 3 -33 7 -42 7 -28 2 -22 11 30 50 26 20 52 40 57 45 6 4 35 26 66
49 31 23 62 47 70 55 8 7 52 45 99 85 87 72 288 274 372 373 l46 55 -15 65
c-20 86 -12 266 14 330 35 86 65 134 114 181 64 62 136 96 235 111 l80 11 -23
25 c-12 13 -20 28 -17 33 3 5 1 9 -4 9 -12 0 0 55 20 95 18 35 55 76 84 94 17
11 17 11 -6 5 -14 -3 -32 -13 -41 -20 -12 -11 -18 -11 -27 -2 -8 8 -12 8 -12
1 0 -6 -11 -14 -24 -17 -13 -3 -32 -9 -42 -13 -12 -4 -15 -3 -10 5 4 7 2 12
-3 12 -6 0 -11 -4 -11 -9 0 -5 -15 -8 -33 -7 -43 4 -126 88 -127 127 0 54 12
89 31 89 30 0 24 37 -6 42 -14 3 -25 1 -25 -3 0 -5 -7 -9 -15 -9 -8 0 -15 4
-15 10 0 5 6 9 13 7 8 -1 13 17 15 61 l3 62 -40 0 c-21 0 -41 4 -43 9 -5 14
-78 25 -78 12 0 -6 8 -11 18 -11 14 0 15 -2 2 -10 -8 -5 -17 -6 -20 -2 -14 19
-58 34 -114 38 -130 10 -197 37 -217 88 -11 29 -13 29 -16 9 -7 -38 -23 -26
-23 16 0 22 -5 41 -12 44 -10 3 -12 -8 -10 -42 4 -45 3 -45 -13 -23 -9 12 -22
22 -28 22 -7 0 -21 9 -30 21 -18 20 -18 21 5 14 13 -4 29 -14 35 -23 15 -18
28 -10 20 13 -4 8 -15 15 -26 15 -11 0 -23 5 -26 10 -3 5 -18 10 -33 10 -25 1
-26 2 -9 14 16 12 15 14 -18 20 -34 7 -39 14 -36 46 1 10 -1 11 -6 4 -4 -6
-18 -13 -30 -16 -18 -5 -23 -2 -23 13 0 11 -7 19 -16 19 -11 0 -14 -6 -8 -22
6 -21 6 -21 -11 -4 -14 14 -15 20 -6 26 9 5 6 9 -11 15 -21 7 -22 8 -3 12 10
3 21 0 23 -6 4 -12 32 -15 32 -3 0 14 -63 33 -74 22 -6 -6 -16 -10 -24 -10 -9
0 -5 7 9 19 l24 19 -25 21 c-23 19 -24 20 -5 22 11 1 4 5 -15 9 -32 7 -33 7
-7 9 16 0 26 5 23 10 -3 5 -15 7 -26 4 -12 -3 -22 1 -26 11 -3 9 -15 16 -25
16 -10 0 -19 5 -19 10 0 6 8 10 18 10 13 0 14 2 3 9 -7 5 -10 14 -7 20 12 18
-20 41 -58 41 -19 0 -37 4 -40 9 -3 4 6 6 19 3 14 -2 25 0 25 6 0 5 -13 12
-30 16 -16 3 -30 10 -30 16 0 6 10 8 25 4 15 -4 25 -2 25 5 0 6 -6 11 -12 11
-7 0 -22 8 -33 16 -19 15 -18 15 15 11 19 -2 27 -2 18 0 -10 2 -18 13 -18 24
0 12 -7 19 -20 19 -15 0 -20 7 -20 25 0 18 5 25 20 25 11 0 20 5 20 10 0 6 -6
10 -13 10 -18 0 -67 24 -67 33 0 4 8 7 18 7 16 1 16 1 0 14 -22 17 -23 27 -2
19 13 -5 15 -2 10 13 -3 10 1 31 9 47 13 26 13 27 -11 27 -25 0 -34 -24 -11
-34 6 -3 2 -3 -10 0 -13 3 -23 1 -23 -5 0 -6 -7 -11 -16 -11 -11 0 -14 -6 -9
-21 6 -18 5 -19 -14 -7 -21 13 -28 28 -13 28 5 0 15 16 22 35 8 20 20 41 27
47 7 5 10 14 7 19 -3 5 2 12 10 15 9 3 16 14 16 24 0 10 9 20 20 23 13 3 18
10 14 21 -3 9 -1 16 5 16 6 0 11 7 11 15 0 8 5 15 10 15 6 0 10 -5 10 -12 0
-6 2 -9 5 -6 3 3 2 15 -3 28 -7 19 -2 29 35 63 27 25 43 48 43 63 0 12 5 26
10 29 6 4 9 12 8 18 -3 15 25 77 34 77 5 0 8 9 8 19 0 11 5 23 10 26 6 3 10
17 10 31 0 13 5 24 10 24 6 0 10 11 10 25 0 14 7 28 16 32 13 5 13 7 2 14 -11
7 -11 9 1 9 7 0 11 6 7 15 -3 8 -2 15 2 15 6 0 33 51 38 70 3 17 19 48 32 63
8 9 12 17 7 17 -4 0 -2 7 5 15 6 8 9 18 6 23 -3 5 3 18 14 29 10 12 16 24 12
27 -3 4 -2 10 3 14 15 10 35 50 35 67 0 8 5 15 11 15 23 0 41 31 37 65 -2 22
1 36 9 39 7 3 10 12 7 19 -3 8 2 22 11 31 9 9 13 20 10 26 -3 5 -1 10 4 10 15
0 14 27 -1 33 -10 4 -10 8 1 15 14 10 16 18 25 84 2 14 7 32 11 39 5 7 4 10
-3 5 -7 -4 -9 3 -7 21 2 16 4 41 4 56 1 16 5 26 11 22 6 -3 10 -1 10 4 0 6 -4
11 -10 11 -5 0 -10 12 -10 26 0 14 4 23 10 19 6 -3 10 -2 10 4 0 5 -5 13 -11
16 -6 4 -8 13 -5 21 3 8 2 14 -3 14 -13 0 -30 89 -17 94 6 3 1 8 -12 12 -17 5
-20 10 -11 20 6 7 17 10 25 7 8 -3 14 0 14 6 0 6 -13 11 -29 11 -29 0 -29 0
-36 76 -15 157 28 290 130 399 15 17 41 49 58 73 17 23 36 42 44 42 7 0 13 9
13 19 0 11 6 26 13 33 40 43 127 201 127 233 0 8 4 15 8 15 10 0 51 160 54
210 1 19 5 40 10 45 4 6 7 20 7 30 -1 29 9 169 12 181 6 18 -12 280 -21 314
-5 19 -19 75 -31 123 -19 83 -34 123 -99 262 -16 33 -31 70 -35 83 -4 13 -21
32 -38 43 l-32 19 30 1 c17 0 23 3 15 6 -8 2 -22 7 -30 9 -13 5 -13 6 0 15 11
8 10 9 -7 4 -13 -4 -23 -2 -23 4 0 5 -17 13 -37 16 -21 4 -48 10 -59 15 -19 8
-18 2 12 -48z m-1296 -22 c0 -5 -4 -10 -10 -10 -5 0 -10 5 -10 10 0 6 5 10 10
10 6 0 10 -4 10 -10z m40 -10 c0 -5 -2 -10 -4 -10 -3 0 -8 5 -11 10 -3 6 -1
10 4 10 6 0 11 -4 11 -10z m-4464 -785 c32 -49 13 -147 -37 -190 -37 -30 -77
-32 -112 -5 -68 54 -25 193 69 219 38 10 62 3 80 -24z m1880 -1982 c-3 -27
-15 -95 -26 -153 -11 -58 -29 -154 -40 -215 -11 -60 -22 -116 -25 -123 -6 -16
-31 -242 -46 -422 -17 -196 -17 -393 -2 -545 7 -77 18 -187 24 -245 5 -58 12
-118 14 -135 2 -16 6 -52 9 -80 5 -46 4 -45 -9 15 -9 35 -13 70 -11 77 3 6 1
13 -3 15 -12 4 -39 233 -52 443 -17 273 0 604 46 880 36 208 110 535 123 535
3 0 2 -21 -2 -47z m3327 -58 c-3 -9 -8 -14 -10 -11 -3 3 -2 9 2 15 9 16 15 13
8 -4z m374 -57 c-3 -8 -6 -5 -6 6 -1 11 2 17 5 13 3 -3 4 -12 1 -19z m-413
-113 c-4 -8 -8 -15 -10 -15 -2 0 -4 7 -4 15 0 8 4 15 10 15 5 0 7 -7 4 -15z
m-3218 -84 c-2 -9 -9 -47 -16 -86 -6 -38 -15 -79 -20 -90 -5 -11 -11 -27 -14
-35 -3 -8 -4 26 -2 75 5 104 22 166 43 158 7 -3 12 -13 9 -22z m3181 -14 c1
-39 1 -40 -8 -12 -8 26 -6 55 3 55 2 0 4 -19 5 -43z m-20 -29 c-3 -8 -6 -5 -6
6 -1 11 2 17 5 13 3 -3 4 -12 1 -19z m-3220 -250 c-3 -8 -6 -5 -6 6 -1 11 2
17 5 13 3 -3 4 -12 1 -19z m3359 -245 c-10 -10 -19 5 -10 18 6 11 8 11 12 0 2
-7 1 -15 -2 -18z m-1400 -268 c-21 -16 -32 -13 -21 4 3 6 14 11 23 11 15 -1
15 -2 -2 -15z m48 -14 c3 -5 0 -11 -8 -14 -15 -6 -26 1 -26 15 0 11 27 10 34
-1z m86 -47 c0 -2 -13 -12 -29 -23 -24 -18 -31 -19 -40 -7 -10 12 -8 13 8 9
12 -3 21 -1 21 5 0 6 -8 12 -17 15 -10 2 -1 4 20 3 20 0 37 -1 37 -2z m30 -14
c0 -5 -6 -10 -13 -10 -16 0 -17 -41 -2 -53 6 -5 4 -7 -4 -5 -17 5 -23 48 -9
66 12 14 28 16 28 2z m28 -41 c-2 -6 -8 -10 -13 -10 -5 0 -11 4 -13 10 -2 6 4
11 13 11 9 0 15 -5 13 -11z m986 -4 c3 -8 1 -15 -4 -15 -6 0 -10 7 -10 15 0 8
2 15 4 15 2 0 6 -7 10 -15z m103 -71 c-3 -3 -12 -4 -19 -1 -8 3 -5 6 6 6 11 1
17 -2 13 -5z m-850 -30 c-3 -3 -12 -4 -19 -1 -8 3 -5 6 6 6 11 1 17 -2 13 -5z
m30 -36 c-3 -8 -6 -5 -6 6 -1 11 2 17 5 13 3 -3 4 -12 1 -19z m40 -10 c-3 -8
-6 -5 -6 6 -1 11 2 17 5 13 3 -3 4 -12 1 -19z m-267 -175 c0 -21 -4 -43 -8
-50 -4 -6 -7 11 -7 38 0 27 3 49 8 49 4 0 7 -17 7 -37z m1180 17 c0 -13 -11
-13 -30 0 -12 8 -11 10 8 10 12 0 22 -4 22 -10z m-1106 -255 c9 -14 14 -31 10
-37 -4 -6 -3 -8 3 -5 5 3 24 -18 41 -46 53 -88 55 -188 5 -247 -24 -29 -24
-32 -9 -49 10 -11 13 -22 8 -25 -5 -3 -12 -23 -16 -43 -4 -29 -14 -43 -41 -60
-19 -13 -37 -23 -41 -23 -3 0 -19 -9 -35 -21 -26 -18 -28 -19 -23 -2 5 17 5
17 -6 -1 -10 -15 -14 -16 -22 -5 -8 11 -9 10 -4 -4 3 -11 0 -20 -9 -23 -8 -4
-15 -12 -15 -20 0 -23 68 -17 164 16 113 38 213 52 283 39 29 -6 58 -7 65 -3
6 4 8 3 5 -3 -7 -12 20 -26 33 -18 4 3 14 -3 21 -13 13 -16 13 -16 -6 -2 -19
14 -19 14 -6 -2 7 -10 20 -18 29 -18 8 0 13 -3 10 -6 -8 -7 35 -51 44 -47 4 2
5 -2 2 -10 -3 -8 0 -18 7 -23 8 -5 10 -3 4 6 -5 9 -4 11 4 6 6 -4 9 -11 7 -14
-2 -4 4 -32 14 -62 27 -76 26 -228 0 -337 -76 -319 -301 -483 -713 -522 -115
-11 -298 -1 -400 23 -105 24 -229 74 -291 116 l-60 41 -12 -31 c-16 -37 -65
-60 -128 -60 -57 0 -84 10 -120 46 -39 39 -42 51 -72 242 -14 92 -39 229 -55
305 -35 166 -36 194 -6 237 35 54 81 75 160 75 64 0 70 -2 93 -30 15 -19 27
-26 32 -19 4 5 30 44 57 84 104 155 228 255 463 374 61 32 112 62 112 67 0 6
3 8 8 5 4 -2 17 1 30 8 22 12 22 12 -9 30 -18 11 -29 14 -25 7 4 -6 1 -11 -6
-11 -11 0 -11 -2 0 -9 10 -6 7 -12 -13 -25 -31 -21 -48 -13 -19 9 26 20 9 19
-22 -1 -19 -13 -22 -19 -13 -30 10 -12 8 -13 -6 -8 -14 6 -16 4 -10 -6 5 -8 4
-11 -3 -6 -6 4 -9 13 -5 21 4 11 1 13 -10 9 -14 -5 -15 -1 -7 26 12 41 17 47
32 32 7 -7 19 -12 27 -12 12 1 12 3 -3 12 -18 10 -18 11 5 24 13 7 31 13 40
14 9 0 28 11 43 25 15 14 31 25 36 25 4 0 10 5 12 12 3 8 30 13 76 14 50 1 76
7 87 18 9 9 29 16 45 16 16 0 30 7 34 15 5 13 10 14 28 5 22 -10 22 -10 4 4
-14 12 -17 23 -12 47 5 25 3 30 -9 26 -12 -5 -12 -2 -3 18 10 22 13 18 38 -56
15 -43 35 -90 44 -104z m405 56 c96 -49 279 -65 416 -36 125 27 190 15 105
-19 -135 -54 -373 -36 -523 41 -48 24 -167 109 -167 118 0 2 28 -15 63 -39 34
-24 82 -53 106 -65z m951 -123 c-13 -5 -25 -6 -29 -3 -9 10 21 24 37 17 12 -4
10 -7 -8 -14z m38 -25 c-10 -2 -26 -2 -35 0 -10 3 -2 5 17 5 19 0 27 -2 18 -5z
m-1774 -32 c3 -5 0 -11 -7 -14 -8 -3 -14 1 -14 9 0 16 13 19 21 5z m1360 -60
c-16 -41 -94 -131 -113 -131 -5 0 -16 -8 -23 -18 -25 -35 -107 -65 -189 -70
-45 -3 -84 0 -95 6 -16 9 -10 11 33 12 67 0 159 29 216 69 25 17 76 65 113
106 38 41 70 73 71 71 2 -2 -4 -22 -13 -45z m-3325 -51 l-1 -25 -8 25 c-4 14
-8 32 -9 40 -1 13 0 13 9 0 5 -8 9 -26 9 -40z m1818 36 c0 -8 -6 -12 -15 -9
-11 5 -11 7 0 14 7 5 13 9 14 9 0 0 1 -6 1 -14z m992 -152 c90 -19 134 -18
226 6 89 23 109 20 38 -5 -66 -23 -197 -31 -264 -15 -53 12 -164 62 -184 82
-5 6 19 -4 54 -22 35 -17 93 -38 130 -46z m-404 -14 c3 -5 1 -10 -4 -10 -6 0
-11 5 -11 10 0 6 2 10 4 10 3 0 8 -4 11 -10z m2005 -106 c0 -9 -5 -14 -12 -12
-18 6 -21 28 -4 28 9 0 16 -7 16 -16z m-2153 -120 c-3 -3 -12 -4 -19 -1 -8 3
-5 6 6 6 11 1 17 -2 13 -5z"/>
<path d="M5526 3974 c-9 -24 -7 -27 9 -10 17 17 19 26 6 26 -5 0 -12 -7 -15
-16z"/>
<path d="M5360 3860 c0 -5 7 -7 15 -4 8 4 15 8 15 10 0 2 -7 4 -15 4 -8 0 -15
-4 -15 -10z"/>
<path d="M5320 3845 c-8 -9 -8 -15 -2 -15 12 0 26 19 19 26 -2 2 -10 -2 -17
-11z"/>
<path d="M5633 3545 c0 -8 4 -12 9 -9 5 3 6 10 3 15 -9 13 -12 11 -12 -6z"/>
<path d="M5453 3365 c0 -8 4 -15 9 -15 4 0 8 4 8 9 0 6 -4 12 -8 15 -5 3 -9
-1 -9 -9z"/>
<path d="M5515 8550 c-3 -6 1 -7 9 -4 18 7 21 14 7 14 -6 0 -13 -4 -16 -10z"/>
<path d="M5418 8500 c-20 -11 -40 -25 -44 -32 -4 -6 10 -1 32 12 67 40 75 53
12 20z"/>
<path d="M3477 8489 c-10 -6 -24 -8 -32 -5 -7 2 -19 -1 -25 -9 -6 -8 -25 -17
-41 -20 -16 -4 -31 -11 -34 -16 -3 -4 -22 -16 -43 -26 -34 -16 -133 -109 -246
-230 -26 -29 -64 -62 -82 -74 -19 -11 -34 -29 -34 -39 0 -14 -9 -20 -32 -22
-28 -3 -33 -7 -30 -27 3 -28 22 -43 110 -89 65 -33 82 -34 82 -5 0 29 38 97
79 140 77 81 152 113 181 78 7 -9 19 -14 26 -11 14 5 44 -35 44 -59 0 -27 38
6 55 47 8 21 19 38 24 38 10 0 56 71 53 82 -3 14 115 100 143 103 6 1 28 7 50
13 22 7 57 12 78 12 44 0 49 16 7 25 -16 4 -30 13 -30 21 0 16 -30 47 -51 53
-8 2 -57 6 -109 9 -52 2 -99 8 -104 13 -12 11 -17 11 -39 -2z"/>
<path d="M2441 8146 c2 -2 22 -11 43 -20 39 -16 39 -16 21 4 -10 11 -29 20
-43 20 -14 0 -23 -2 -21 -4z"/>
<path d="M6140 7400 c-149 -18 -267 -69 -364 -160 -78 -74 -110 -135 -104
-200 6 -56 39 -105 82 -121 17 -6 112 -13 211 -15 212 -5 314 -17 449 -51 l99
-25 68 27 c88 34 114 55 135 110 21 56 14 158 -16 219 -43 89 -124 157 -220
186 -59 17 -222 42 -260 39 -8 -1 -44 -5 -80 -9z m373 -76 c37 -9 67 -20 67
-25 0 -4 8 -6 18 -2 9 3 14 3 10 -1 -4 -4 9 -21 27 -37 19 -17 43 -49 54 -73
20 -41 29 -106 14 -106 -5 0 -28 20 -52 45 -24 24 -62 54 -85 64 -65 32 -178
51 -296 51 -60 0 -121 5 -135 10 -24 9 -25 12 -14 27 23 27 97 54 168 62 82 8
137 5 224 -15z m-478 -23 c-12 -21 -126 -101 -152 -107 l-27 -7 20 34 c12 20
40 44 73 61 52 28 98 37 86 19z"/>
<path d="M5677 6804 c-1 -1 -18 -3 -37 -5 -19 -2 -40 -6 -45 -11 -6 -4 -28 -8
-48 -10 -20 -1 -37 -6 -37 -10 0 -4 -7 -5 -15 -2 -8 4 -15 1 -15 -5 0 -6 -7
-8 -15 -5 -8 4 -15 1 -15 -6 0 -7 -6 -10 -14 -7 -8 3 -16 1 -18 -4 -2 -5 -13
-11 -25 -12 -12 0 -20 -4 -18 -8 3 -3 -13 -12 -35 -19 -22 -7 -47 -21 -56 -31
-9 -10 -20 -16 -25 -14 -4 3 -10 -4 -14 -15 -7 -22 -20 -26 -30 -9 -4 6 -14
-4 -23 -23 -10 -18 -27 -35 -40 -38 -13 -3 -24 -9 -25 -15 -1 -5 -5 -9 -9 -8
-4 2 -10 -6 -13 -17 -4 -11 -13 -20 -21 -20 -14 0 -18 -11 -15 -37 1 -7 -3
-13 -9 -13 -5 0 -10 -7 -10 -15 0 -9 -7 -18 -15 -21 -8 -4 -15 -12 -15 -19 0
-7 -8 -23 -19 -36 -10 -13 -22 -35 -26 -48 -4 -14 -20 -42 -36 -64 -16 -22
-29 -46 -29 -53 0 -7 -6 -19 -12 -26 -7 -7 -14 -28 -16 -47 -1 -19 -7 -41 -14
-48 -6 -7 -8 -13 -5 -13 3 0 0 -21 -8 -47 -22 -81 -27 -124 -26 -240 1 -101 8
-161 26 -219 6 -19 6 -19 -9 0 -16 19 -16 19 -16 -2 0 -25 -15 -29 -24 -6 -3
8 -11 12 -16 9 -8 -5 -7 -11 0 -20 7 -8 8 -20 4 -26 -5 -8 -3 -9 6 -4 10 6 12
4 7 -9 -5 -13 -3 -17 7 -13 9 4 12 0 9 -12 -2 -10 3 -23 11 -30 9 -8 16 -21
16 -30 0 -9 7 -27 16 -39 9 -13 14 -26 10 -29 -9 -9 165 -177 229 -220 130
-87 250 -136 395 -163 104 -18 313 9 415 55 17 8 50 22 75 33 51 23 95 58 189
154 79 80 91 94 91 106 0 5 9 17 20 27 11 10 20 24 20 31 0 7 9 28 19 46 11
18 25 52 32 76 7 23 16 42 22 42 5 0 7 6 4 13 -3 7 4 46 14 87 10 41 19 93 19
115 0 48 22 128 28 103 8 -38 22 -15 22 36 0 30 5 58 10 61 6 3 10 11 10 16 0
6 -4 7 -10 4 -5 -3 -10 4 -9 17 1 43 -9 143 -16 173 -5 17 -18 49 -31 72 -13
26 -18 43 -11 46 7 2 5 13 -5 33 -9 16 -21 43 -28 59 -7 17 -16 37 -21 45 -5
8 -15 26 -21 40 -7 14 -18 29 -25 33 -7 4 -13 15 -13 22 0 8 -7 15 -15 15 -8
0 -15 6 -15 13 0 7 -9 18 -20 25 -11 7 -17 18 -14 27 5 11 -1 15 -18 15 -14 0
-37 11 -52 25 -15 14 -31 25 -36 25 -5 0 -13 6 -17 13 -10 16 -78 47 -103 47
-13 0 -17 5 -14 14 4 11 0 13 -15 9 -12 -3 -21 -1 -21 5 0 6 -9 8 -20 5 -11
-3 -20 -1 -20 5 0 9 -56 27 -74 23 -5 -1 -22 3 -37 9 -24 10 -125 21 -132 14z
m143 -220 c134 -39 285 -140 372 -249 58 -71 142 -237 166 -325 27 -101 24
-349 -6 -452 -12 -42 -20 -83 -18 -90 1 -7 1 -10 -1 -6 -3 4 -22 -28 -43 -70
-75 -149 -212 -282 -343 -330 -29 -11 -88 -25 -131 -32 -71 -11 -106 -10 -227
5 -46 5 -144 28 -152 35 -4 4 18 12 50 19 164 36 326 133 418 248 101 127 165
299 165 444 l0 77 -37 -10 c-43 -12 -125 -6 -165 12 -30 14 -73 88 -108 188
l-23 63 20 27 c11 15 30 47 42 70 24 46 63 78 83 66 32 -18 -49 58 -97 91
-170 117 -403 145 -585 72 -33 -14 -57 -21 -55 -17 10 17 152 104 214 133 100
45 170 57 296 52 61 -2 135 -12 165 -21z m-306 -256 c48 -21 44 -54 -21 -163
-72 -120 -95 -134 -260 -151 -93 -10 -106 -4 -127 59 -21 61 -18 72 41 144 43
54 85 83 148 105 58 20 182 24 219 6z m863 -250 c-3 -8 -6 -5 -6 6 -1 11 2 17
5 13 3 -3 4 -12 1 -19z"/>
<path d="M7549 6777 c-45 -17 -84 -45 -131 -94 -50 -52 -75 -107 -81 -175 -7
-75 11 -102 123 -188 182 -140 363 -357 357 -429 -1 -19 -6 -22 -29 -19 -16 3
-28 0 -28 -6 0 -6 -4 -5 -9 3 -10 16 -49 23 -56 10 -3 -4 -29 -10 -58 -14 -28
-4 -55 -13 -59 -19 -6 -8 -8 -7 -8 2 0 6 -7 12 -15 12 -8 0 -15 -5 -15 -11 0
-6 -7 -8 -16 -5 -9 3 -29 -4 -47 -18 -18 -13 -38 -21 -46 -18 -8 2 -18 -3 -23
-12 -6 -10 -16 -15 -27 -11 -10 3 -24 -1 -31 -10 -7 -8 -19 -15 -26 -15 -8 0
-11 -6 -8 -15 4 -10 0 -15 -13 -15 -11 0 -32 -10 -46 -22 -14 -13 -36 -32 -49
-43 -35 -31 -110 -117 -132 -150 -11 -17 -27 -35 -35 -42 -9 -7 -13 -13 -8
-13 4 0 -4 -18 -18 -40 -14 -22 -25 -45 -25 -51 0 -7 -6 -17 -14 -23 -17 -13
-84 -185 -92 -235 -3 -20 -12 -63 -20 -96 -20 -86 -12 -295 15 -403 32 -126
99 -244 199 -345 109 -112 282 -158 457 -122 44 9 90 17 102 18 11 1 19 5 16
10 -2 4 4 7 15 7 23 0 83 29 79 38 -3 7 39 51 48 52 3 0 5 3 4 6 0 3 17 20 37
37 52 44 94 88 94 99 0 5 5 6 12 2 8 -5 9 -2 5 9 -4 11 -1 17 9 17 9 0 14 6
11 13 -2 6 4 19 13 27 21 19 53 79 55 103 1 11 6 22 12 25 6 4 16 31 23 60 8
28 17 52 21 52 4 0 11 20 15 45 3 25 11 48 17 52 6 4 8 0 4 -9 -3 -9 0 -21 6
-27 6 -6 8 -11 4 -11 -3 0 -2 -11 3 -25 6 -16 6 -25 0 -25 -5 0 -7 -7 -3 -16
6 -15 7 -15 19 1 7 9 10 23 7 31 -3 8 -1 14 5 14 5 0 10 11 10 25 0 14 -6 25
-12 25 -19 0 -35 36 -28 61 6 22 7 20 12 -11 4 -30 9 -35 34 -38 26 -3 28 -2
18 11 -10 12 -10 16 0 20 11 4 10 7 0 15 -11 7 -11 10 2 15 9 4 13 13 10 22
-4 10 0 15 10 15 19 0 21 16 4 23 -10 4 -10 8 1 15 11 8 11 10 0 14 -12 5 -12
9 -1 27 10 18 10 26 1 37 -8 10 -9 14 0 14 8 0 9 5 1 19 -7 14 -7 27 1 45 9
20 9 29 -1 41 -10 12 -10 18 1 31 8 10 9 18 3 22 -12 8 -33 99 -36 159 -2 24
-7 43 -12 43 -4 0 -6 7 -2 15 3 8 0 15 -6 15 -6 0 -8 3 -5 6 3 4 0 16 -8 28
-8 11 -15 25 -15 31 0 5 5 3 10 -5 6 -9 10 -10 10 -3 0 7 -8 17 -17 22 -10 6
-14 11 -9 11 6 0 1 7 -10 15 -11 8 -14 15 -6 15 21 0 13 20 -8 20 -11 0 -20 7
-20 15 0 8 -6 15 -12 15 -9 0 -8 4 2 10 13 9 13 12 -2 21 -22 12 -24 31 -3 23
8 -4 15 -1 15 5 0 6 -7 11 -15 11 -8 0 -15 8 -15 18 0 14 2 15 10 2 8 -12 10
-11 10 6 0 22 20 45 101 114 34 29 50 53 62 91 35 107 14 212 -80 407 -29 60
-41 70 -17 15 53 -123 40 -136 -30 -33 -60 88 -147 183 -206 228 -62 45 -125
73 -238 103 -88 23 -107 37 -99 71 9 33 46 48 120 48 53 0 151 -24 167 -40 3
-3 19 -13 35 -23 29 -18 29 -17 -4 12 -18 16 -60 44 -93 61 -50 27 -74 33
-142 36 -53 3 -93 0 -117 -9z m-79 -197 c-6 -11 -16 -20 -22 -20 -13 0 -3 57
15 78 10 13 12 12 15 -11 2 -14 -2 -35 -8 -47z m175 -820 c7 -12 -2 -12 -30 0
-19 8 -19 9 2 9 12 1 25 -3 28 -9z m31 -90 c347 -122 514 -621 347 -1039 -104
-262 -313 -434 -528 -434 -89 -1 -187 12 -180 23 3 4 24 11 48 15 65 11 191
60 240 93 108 75 212 213 248 332 40 134 42 311 3 433 l-18 58 -15 -32 c-19
-39 -89 -79 -138 -79 -42 0 -63 22 -122 125 -42 75 -43 79 -31 114 14 40 68
127 94 153 16 16 14 19 -37 53 -73 48 -184 86 -275 92 -84 7 -84 10 13 61 105
54 251 68 351 32z m-457 -174 c-2 -1 -20 -8 -39 -14 -32 -11 -33 -10 -16 3 16
12 69 23 55 11z m109 -47 c17 -6 34 -19 37 -30 15 -45 -58 -197 -109 -229 -36
-22 -161 -48 -173 -37 -3 4 -17 46 -29 94 l-24 87 51 48 c73 68 169 94 247 67z
m809 -471 c-3 -7 -5 -2 -5 12 0 14 2 19 5 13 2 -7 2 -19 0 -25z m9 -55 c-11
-11 -17 4 -9 23 7 18 8 18 11 1 2 -10 1 -21 -2 -24z m-19 -35 c-3 -8 -6 -5 -6
6 -1 11 2 17 5 13 3 -3 4 -12 1 -19z"/>
<path d="M6018 6733 c7 -3 16 -2 19 1 4 3 -2 6 -13 5 -11 0 -14 -3 -6 -6z"/>
<path d="M8080 6470 c6 -11 13 -20 16 -20 2 0 0 9 -6 20 -6 11 -13 20 -16 20
-2 0 0 -9 6 -20z"/>
<path d="M4678 6073 c7 -3 16 -2 19 1 4 3 -2 6 -13 5 -11 0 -14 -3 -6 -6z"/>
<path d="M4613 6003 c9 -9 58 -13 53 -5 -3 5 -17 10 -31 10 -14 0 -24 -2 -22
-5z"/>
<path d="M4698 6003 c7 -3 16 -2 19 1 4 3 -2 6 -13 5 -11 0 -14 -3 -6 -6z"/>
<path d="M4590 5980 c0 -5 6 -10 14 -10 8 0 17 -8 20 -17 5 -11 10 -13 14 -7
4 6 14 14 22 17 9 3 4 6 -12 6 -15 1 -30 6 -33 11 -3 6 -10 10 -16 10 -5 0 -9
-4 -9 -10z"/>
<path d="M4690 5969 c0 -5 5 -7 10 -4 6 3 10 8 10 11 0 2 -4 4 -10 4 -5 0 -10
-5 -10 -11z"/>
<path d="M4585 5941 c-7 -12 12 -24 25 -16 11 7 4 25 -10 25 -5 0 -11 -4 -15
-9z"/>
<path d="M4690 5940 c0 -5 5 -10 11 -10 5 0 7 5 4 10 -3 6 -8 10 -11 10 -2 0
-4 -4 -4 -10z"/>
<path d="M4649 5918 c-1 -13 0 -33 0 -44 2 -23 -20 -37 -43 -28 -8 3 -17 1
-21 -5 -3 -6 -11 -11 -16 -11 -6 0 -8 4 -5 9 4 5 -12 7 -36 4 -57 -6 -62 -13
-10 -13 33 0 42 -4 42 -17 1 -17 2 -17 13 -1 8 9 31 18 53 20 38 3 39 4 39 43
0 22 4 46 8 53 5 8 3 12 -7 12 -10 0 -16 -9 -17 -22z"/>
<path d="M4528 5903 c6 -2 18 -2 25 0 6 3 1 5 -13 5 -14 0 -19 -2 -12 -5z"/>
<path d="M4615 5900 c3 -5 8 -10 11 -10 2 0 4 5 4 10 0 6 -5 10 -11 10 -5 0
-7 -4 -4 -10z"/>
<path d="M4538 5868 c9 -9 15 -9 24 0 9 9 7 12 -12 12 -19 0 -21 -3 -12 -12z"/>
<path d="M4600 5872 c0 -4 9 -8 20 -8 11 0 20 4 20 8 0 4 -9 8 -20 8 -11 0
-20 -4 -20 -8z"/>
<path d="M4690 5865 c0 -9 5 -15 11 -13 6 2 11 8 11 13 0 5 -5 11 -11 13 -6 2
-11 -4 -11 -13z"/>
<path d="M4685 5830 c3 -5 11 -10 16 -10 6 0 7 5 4 10 -3 6 -11 10 -16 10 -6
0 -7 -4 -4 -10z"/>
<path d="M4623 5809 c-47 -14 -41 -29 7 -17 22 6 40 14 40 19 0 11 -4 10 -47
-2z"/>
<path d="M4690 5780 c0 -11 -7 -20 -15 -20 -8 0 -15 7 -15 15 0 8 -4 15 -10
15 -5 0 -10 -4 -10 -8 0 -5 -10 -13 -22 -19 -20 -9 -19 -10 10 -10 40 0 84
-22 78 -40 -3 -7 -1 -13 3 -13 12 0 23 29 15 41 -3 5 -13 9 -22 10 -14 0 -13
2 3 9 11 5 14 9 6 9 -11 1 -11 4 -1 16 10 12 10 15 -4 15 -9 0 -16 -8 -16 -20z"/>
<path d="M4738 5753 c7 -3 16 -2 19 1 4 3 -2 6 -13 5 -11 0 -14 -3 -6 -6z"/>
<path d="M4637 5733 c-14 -13 -6 -20 18 -15 14 2 22 8 19 13 -6 11 -28 12 -37
2z"/>
<path d="M4740 5710 c0 -5 5 -10 11 -10 5 0 7 5 4 10 -3 6 -8 10 -11 10 -2 0
-4 -4 -4 -10z"/>
<path d="M4605 5690 c-3 -5 -1 -10 4 -10 6 0 11 5 11 10 0 6 -2 10 -4 10 -3 0
-8 -4 -11 -10z"/>
<path d="M4640 5689 c0 -5 5 -7 10 -4 6 3 10 8 10 11 0 2 -4 4 -10 4 -5 0 -10
-5 -10 -11z"/>
<path d="M4670 5673 c8 -3 27 -15 43 -25 21 -15 27 -16 27 -5 0 15 -41 37 -68
36 -14 0 -14 -2 -2 -6z"/>
<path d="M4771 5644 c0 -11 3 -14 6 -6 3 7 2 16 -1 19 -3 4 -6 -2 -5 -13z"/>
<path d="M4740 5610 c0 -5 5 -10 10 -10 6 0 10 5 10 10 0 6 -4 10 -10 10 -5 0
-10 -4 -10 -10z"/>
<path d="M4150 5458 c0 -13 7 -18 28 -17 21 1 22 2 7 6 -11 3 -23 10 -27 17
-5 7 -8 5 -8 -6z"/>
<path d="M5130 4770 c0 -5 5 -10 10 -10 6 0 10 5 10 10 0 6 -4 10 -10 10 -5 0
-10 -4 -10 -10z"/>
<path d="M6645 4720 c-3 -5 -1 -10 4 -10 6 0 11 5 11 10 0 6 -2 10 -4 10 -3 0
-8 -4 -11 -10z"/>
<path d="M6630 4656 c0 -8 4 -17 9 -20 5 -4 7 3 4 14 -6 23 -13 26 -13 6z"/>
<path d="M6580 4620 c0 -5 7 -10 15 -10 8 0 15 5 15 10 0 6 -7 10 -15 10 -8 0
-15 -4 -15 -10z"/>
<path d="M5538 4533 c7 -3 16 -2 19 1 4 3 -2 6 -13 5 -11 0 -14 -3 -6 -6z"/>
<path d="M6600 4530 c0 -5 7 -10 16 -10 8 0 12 5 9 10 -3 6 -10 10 -16 10 -5
0 -9 -4 -9 -10z"/>
<path d="M5656 4506 c10 -8 21 -12 24 -10 5 6 -21 24 -34 24 -6 0 -1 -6 10
-14z"/>
<path d="M5606 4491 c-28 -11 -9 -18 49 -19 l50 -1 -40 14 c-22 8 -40 14 -40
14 0 0 -9 -4 -19 -8z"/>
<path d="M5700 4450 c0 -5 7 -10 15 -10 8 0 15 5 15 10 0 6 -7 10 -15 10 -8 0
-15 -4 -15 -10z"/>
<path d="M5876 4415 c-3 -8 -1 -15 4 -15 6 0 10 7 10 15 0 8 -2 15 -4 15 -2 0
-6 -7 -10 -15z"/>
<path d="M6738 4253 c7 -3 16 -2 19 1 4 3 -2 6 -13 5 -11 0 -14 -3 -6 -6z"/>
<path d="M6735 4220 c3 -5 10 -10 16 -10 5 0 9 5 9 10 0 6 -7 10 -16 10 -8 0
-12 -4 -9 -10z"/>
<path d="M6778 4133 c7 -3 16 -2 19 1 4 3 -2 6 -13 5 -11 0 -14 -3 -6 -6z"/>
<path d="M7932 4113 c-21 -8 -43 -61 -42 -106 1 -63 5 -91 16 -108 5 -7 18
-35 30 -61 13 -26 31 -49 43 -53 12 -3 21 -11 21 -17 0 -12 132 -2 172 14 29
11 68 67 68 98 0 10 4 20 10 22 5 2 12 17 15 33 6 27 3 32 -32 48 -46 21 -66
33 -115 70 -57 43 -149 73 -186 60z"/>
<path d="M6870 4020 c0 -6 7 -10 15 -10 8 0 15 2 15 4 0 2 -7 6 -15 10 -8 3
-15 1 -15 -4z"/>
<path d="M7272 3764 c-7 -8 -8 -14 -3 -14 10 0 25 19 20 25 -2 1 -10 -3 -17
-11z"/>
<path d="M7368 3753 c7 -3 16 -2 19 1 4 3 -2 6 -13 5 -11 0 -14 -3 -6 -6z"/>
<path d="M7280 3730 c0 -5 7 -10 15 -10 8 0 15 5 15 10 0 6 -7 10 -15 10 -8 0
-15 -4 -15 -10z"/>
<path d="M7360 3722 c0 -11 71 -31 89 -24 10 4 4 9 -20 18 -40 15 -69 17 -69
6z"/>
</g>
</svg>
